{"title":"Red 2 - 2013 - Cam - avi - Read Info - by - Pioneer222","uid":8739194,"size":702752400,"categoryP":"video","categoryS":"other","magnet":"?xt=urn:btih:626b6d1cc16d35a7c33d781fec6344624ac52fb4&amp;dn=Red+2+-+2013+-+Cam+-+avi+-+Read+Info+-+by+-+Pioneer222&amp;tr=udp%3A%2F%2Ftracker.openbittorrent.com%3A80&amp;tr=udp%3A%2F%2Fopen.demonii.com%3A1337&amp;tr=udp%3A%2F%2Ftracker.coppersurfer.tk%3A6969&amp;tr=udp%3A%2F%2Fexodus.desync.com%3A6969","seeders":1,"leechers":0,"uploader":"Pioneer222","files":-1,"time":1374744639,"description":"************Read Description Below Please Before Downloading**********\n\nVideo\nID                                       : 0\nFormat                                   : AVC\nFormat/Info                              : Advanced Video Codec\nFormat profile                           : &lt;a class=&quot;__cf_email__&quot; href=&quot;/cdn-cgi/l/email-protection&quot; data-cfemail=&quot;591438303719156c7768&quot;&gt;[email&amp;#160;protected]&lt;/a&gt;&lt;script cf-hash='f9e31' type=&quot;text/javascript&quot;&gt;\n/* &lt;![CDATA[ */!function(){try{var t=&quot;currentScript&quot;in document?document.currentScript:function(){for(var t=document.getElementsByTagName(&quot;script&quot;),e=t.length;e--;)if(t[e].getAttribute(&quot;cf-hash&quot;))return t[e]}();if(t&amp;&amp;t.previousSibling){var e,r,n,i,c=t.previousSibling,a=c.getAttribute(&quot;data-cfemail&quot;);if(a){for(e=&quot;&quot;,r=parseInt(a.substr(0,2),16),n=2;a.length-n;n+=2)i=parseInt(a.substr(n,2),16)^r,e+=String.fromCharCode(i);e=document.createTextNode(e),c.parentNode.replaceChild(e,c)}}}catch(u){}}();/* ]]&gt; */&lt;/script&gt;\nFormat settings, CABAC                   : Yes\nFormat settings, ReFrames                : 1 frame\nCodec ID                                 : H264\nDuration                                 : 1h 10mn\nBit rate                                 : 1 193 Kbps\nWidth                                    : 1 280 pixels\nHeight                                   : 720 pixels\nDisplay aspect ratio                     : 16:9\nFrame rate                               : 23.976 fps\nColor space                              : YUV\nChroma subsampling                       : 4:2:0\nBit depth                                : 8 bits\nScan type                                : Progressive\nBits/(Pixel*Frame)                       : 0.054\nStream size                              : 601 MiB (90%)\n\nAudio\nID                                       : 1\nFormat                                   : MPEG Audio\nFormat version                           : Version 1\nFormat profile                           : Layer 3\nCodec ID                                 : 55\nCodec ID/Hint                            : MP3\nDuration                                 : 1h 10mn\nBit rate mode                            : Constant\nBit rate                                 : 128 Kbps\nChannel(s)                               : 2 channels\nSampling rate                            : 44.1 KHz\nCompression mode                         : Lossy\nStream size                              : 64.5 MiB (10%)\nAlignment                                : Split accros\n\n\n\n\n*****MISSING 5 MINUTES from the start guys sorry was late to the theater I apologized for that. Its a Great movie Please Enjoy the TEASE \n\n:}\n\n\nFrank (Bruce Willis), Sarah (Mary-Louise Parker), and Marvin (John Malkovich) fight an unrelenting onslaught of hired killers, heavily armed terrorists, and powerful government officials in their desperate race to prevent a missing portable nuclear device from falling into the wrong hands. Sir Anthony Hopkins, Helen Mirren, Lee Byung-hun, and Catherine Zeta Jones co-star. ~ Jason Buchanan, Rovi.\n\n\n\n            *****Thank you for your Positive Comments Guys*****\n\n\n\n\n\n\n","torrent":{"xt":"urn:btih:626b6d1cc16d35a7c33d781fec6344624ac52fb4","amp;dn":"Red+2+-+2013+-+Cam+-+avi+-+Read+Info+-+by+-+Pioneer222","amp;tr":["udp%3A%2F%2Ftracker.openbittorrent.com%3A80","udp%3A%2F%2Fopen.demonii.com%3A1337","udp%3A%2F%2Ftracker.coppersurfer.tk%3A6969","udp%3A%2F%2Fexodus.desync.com%3A6969"],"infoHash":"626b6d1cc16d35a7c33d781fec6344624ac52fb4","infoHashBuffer":{"type":"Buffer","data":[98,107,109,28,193,109,53,167,195,61,120,31,236,99,68,98,74,197,47,180]},"announce":[],"urlList":[]}}